<svg id="svg" xmlns="http://www.w3.org/2000/svg" xmlns:xlink="http://www.w3.org/1999/xlink" width="120px" height="50px" viewBox="0 0 400 400" ><g id="svgg"><path id="path0" d="M196.592 92.086 C 195.468 95.069,167.916 195.675,167.564 198.083 C 165.701 210.825,170.541 220.025,183.884 229.102 C 195.106 236.737,199.547 243.084,198.364 249.800 C 197.247 256.147,192.436 259.536,185.146 259.114 C 177.790 258.689,172.920 254.658,159.391 237.800 C 149.462 225.428,143.696 219.823,137.633 216.651 C 124.066 209.553,107.634 214.307,98.762 227.898 C 96.301 231.667,96.346 231.943,99.567 232.851 C 112.671 236.545,124.673 248.270,135.215 267.675 C 142.204 280.541,146.086 286.124,152.408 292.400 C 166.109 306.002,182.705 310.810,199.986 306.183 C 212.441 302.848,221.018 295.907,233.820 278.800 C 243.509 265.853,244.502 265.424,265.000 265.352 C 281.496 265.294,283.242 264.831,287.873 259.287 C 290.908 255.654,295.200 248.129,295.200 246.441 C 295.200 246.124,287.609 246.000,268.200 246.000 C 237.800 246.000,240.440 246.313,241.990 242.897 C 244.486 237.400,249.671 234.029,267.984 225.998 C 294.287 214.463,301.370 208.131,303.835 193.947 C 304.827 188.236,303.902 178.791,302.383 179.130 C 302.062 179.202,284.363 188.808,263.052 200.476 C 232.640 217.128,224.224 221.575,223.932 221.146 C 223.727 220.846,223.630 219.312,223.717 217.738 C 224.094 210.909,228.427 204.992,248.493 183.904 C 274.583 156.485,278.283 149.319,273.949 134.600 C 272.474 129.591,266.582 118.508,265.593 118.883 C 265.424 118.947,250.741 137.126,232.966 159.279 C 197.636 203.311,200.299 200.385,199.176 196.388 C 197.315 189.769,199.431 179.244,207.013 157.400 C 218.470 124.395,219.086 119.679,213.407 108.417 C 209.874 101.412,197.578 89.469,196.592 92.086 " stroke="none" fill="#0484c4" fill-rule="evenodd"></path><path id="path1" d="" stroke="none" fill="#0884c4" fill-rule="evenodd"></path><path id="path2" d="" stroke="none" fill="#0884c4" fill-rule="evenodd"></path><path id="path3" d="" stroke="none" fill="#0884c4" fill-rule="evenodd"></path><path id="path4" d="" stroke="none" fill="#0884c4" fill-rule="evenodd"></path></g></svg>