<svg xmlns="http://www.w3.org/2000/svg" xmlns:xlink="http://www.w3.org/1999/xlink" viewBox="0 0 342.85 143.08"><defs><style>.cls-1{fill:url(#linear-gradient);}</style><linearGradient id="linear-gradient" x1="46.26" y1="185.96" x2="270.92" y2="-38.7" gradientUnits="userSpaceOnUse"><stop offset="0.06" stop-color="#000068"/><stop offset="0.17" stop-color="#020f74"/><stop offset="0.38" stop-color="#063695"/><stop offset="0.62" stop-color="#0c6bc2"/></linearGradient></defs><title>Asset 1</title><g id="Layer_2" data-name="Layer 2"><g id="Layer_8" data-name="Layer 8"><path class="cls-1" d="M292.56,87.56a4.39,4.39,0,0,1,1.12-3.62l42-49.89H296.81a2.1,2.1,0,0,1-2.12-2.12,2,2,0,0,1,2.12-2H338c1.87,0,2.87.87,3.12,2.25A4.85,4.85,0,0,1,340,35.8l-42,49.89h41.29a2,2,0,0,1,2.12,2.12,2,2,0,0,1-2.12,2H295.93C293.94,89.81,292.81,88.93,292.56,87.56ZM173.82,104.12l6.29,14.38h-2.59l-1.38-3.25h-7.25l-1.38,3.25H165l6.35-14.38Zm1.4,9-2.71-6.39-2.71,6.39ZM98.7,107.37a167,167,0,0,1,58.16,11.86c-19.54-2.56-38.88-3.78-58-2.46a214.88,214.88,0,0,0-55.72,11.11q-6.73,2.28-13.29,5.05c-4.4,1.8-8.7,3.8-13,5.89l-3.31,1.58c-1.13.54-2.24,1.07-3.61,1.65-.36.15-.71.29-1.18.46-.24.08-.48.17-.82.26a8.23,8.23,0,0,1-1.42.27l-.62,0a7,7,0,0,1-1-.07,6.27,6.27,0,0,1-1.46-.41,6.07,6.07,0,0,1-1-.56,5.33,5.33,0,0,1-.92-.8,6,6,0,0,1-.79-1.06,6,6,0,0,1-.45-1A5.6,5.6,0,0,1,0,137.52a4.79,4.79,0,0,1,0-.58c0-.15,0-.3,0-.45a5.52,5.52,0,0,1,.13-.68,7.44,7.44,0,0,1,.51-1.44L.9,134l.13-.24c.66-1.2,1.35-2.39,2.11-3.53a56.85,56.85,0,0,1,10.68-12A88.15,88.15,0,0,1,40.71,103q5.49-2,11.11-3.51a89.62,89.62,0,0,0-14.45-.1,60.34,60.34,0,0,0-16.07,3.29A44.08,44.08,0,0,0,7,111a42.24,42.24,0,0,1,13.5-10.25,62.65,62.65,0,0,1,16.39-5.2,90.37,90.37,0,0,1,17.2-1.27c2.88.05,5.76.21,8.63.49s5.68.66,8.69,1.27a3.31,3.31,0,0,1,0,6.49l-.34.06c-2.21.41-4.59,1-6.88,1.56s-4.6,1.24-6.87,2a135.85,135.85,0,0,0-13.32,4.95A89.79,89.79,0,0,0,24.66,122.3l.54-.25q6.92-3,14.08-5.51A170.66,170.66,0,0,1,98.7,107.37ZM10.6,138.89s0-.07.07-.15l-.08.16Zm28-47.58c23.32,0,35.55-12,35.55-34.92V6.61a6.31,6.31,0,1,0-12.6,0V56.13c0,17.21-8,23.82-23,23.82s-22.2-7-22.2-24.07V6c0-3.24-2.62-6-6.49-6A5.94,5.94,0,0,0,3.82,6V56.25C3.82,79.58,15,91.3,38.62,91.3Zm78.21-4.74c.87,2.37,2.37,3.74,4.24,3.74s3.12-1.25,4-3.49L157.11,5a5.63,5.63,0,0,0,.37-1.62A2.36,2.36,0,0,0,155,.87a2.47,2.47,0,0,0-2.37,1.87L120.94,84.19,89.26,2.62A2.4,2.4,0,0,0,86.89.87a2.26,2.26,0,0,0-2.37,2.49,2.69,2.69,0,0,0,.25,1.37Zm68,4.74c-18.21,0-27.94-11.1-27.94-31.06,0-19.46,10.1-31.56,26.44-31.56,15.34,0,24.07,11.23,24.07,28.19,0,3.12-.75,4.12-3,4.12H161.6c.25,17.09,8.36,26.07,23.57,26.07a32.83,32.83,0,0,0,15.34-3.74c1.12-.5,2.25-1.37,3.24-1.37a1.87,1.87,0,0,1,1.87,2,2.6,2.6,0,0,1-1.37,2.12C199.52,89.31,192.91,91.3,184.8,91.3ZM161.73,57.13h40.91c-.12-16.09-7.48-24.2-19.21-24.2C170.83,32.93,162.73,41.41,161.73,57.13Zm34.64,54.18c0,4.15-3.14,7.19-7.5,7.19H183V104.12h5.89A7.07,7.07,0,0,1,196.37,111.31Zm-2.44,0a4.9,4.9,0,0,0-5-5h-3.43v10H189A4.82,4.82,0,0,0,193.93,111.33Zm100.07,1h7v-2.18h-7V106.3h7.84v-2.18H291.57V118.5h10.52v-2.18H294Zm-8.41-82.42H267.12V14.84a2.37,2.37,0,0,0-2.37-2.37,2.29,2.29,0,0,0-2.37,2.37V29.94h-9.11a1.9,1.9,0,0,0-2,2,2,2,0,0,0,1.87,2h9.23V77.21c0,11.6,5,14.09,12.6,14.09a29.56,29.56,0,0,0,8.36-1.25,2.37,2.37,0,0,0,2-2.37c0-1.25-.87-2.12-2.62-1.75a18.39,18.39,0,0,1-7.11,1.12c-4.86,0-8.48-1.75-8.48-9.73V33.93h18.34a2,2,0,0,0,2-2A1.87,1.87,0,0,0,285.58,29.94Zm-1.24,80.43h-7.62v-6.24H274.3V118.5h2.42v-6h7.62v6h2.42V104.12h-2.42Zm34.56-4.15a6.25,6.25,0,0,1,4.15,1.64l1.38-1.79a8.63,8.63,0,0,0-5.52-2c-4.35,0-7.7,3.14-7.7,7.25a7.33,7.33,0,0,0,7.56,7.29,9.74,9.74,0,0,0,5.59-1.87v-5.3h-2.12v4a6.7,6.7,0,0,1-3.31,1,5.11,5.11,0,1,1,0-10.21Zm23.94,5.09a7.63,7.63,0,1,1-7.62-7.25A7.36,7.36,0,0,1,342.85,111.31Zm-2.49,0a5.15,5.15,0,0,0-10.29,0,5.15,5.15,0,0,0,5.18,5.11A5.1,5.1,0,0,0,340.36,111.31ZM202.18,107.8c0-1,.92-1.5,2.34-1.5a8.6,8.6,0,0,1,4.21,1.33l1-2.14a9.37,9.37,0,0,0-5-1.48c-3.12,0-5.24,1.54-5.24,4,0,5.11,7.76,3.33,7.76,6.53,0,1.11-1,1.75-2.69,1.75a7.58,7.58,0,0,1-4.87-2.1l-1,2.1a8.84,8.84,0,0,0,5.87,2.28c3.16,0,5.42-1.58,5.42-4.15C209.95,109.26,202.18,110.94,202.18,107.8Zm57.5-1.5h4.54v12.2h2.42V106.3h4.56v-2.18H259.68ZM246.29,33.55c1.5.12,2.74-.25,2.74-2.25,0-1.37-.75-2.25-2.49-2.49-.37,0-1.37-.12-2.37-.12-7.23.12-13.22,6.24-16.34,15.22l-.37-12.1c0-1.37-.62-2.25-2-2.25a2.06,2.06,0,0,0-2.12,2.25V87.94a2.27,2.27,0,0,0,2.25,2.37,2.4,2.4,0,0,0,2.49-2.37L228,56.5h.12c0-8.48,5.61-23,15.84-23Zm-12.14,77.76a7.63,7.63,0,1,1-7.62-7.25A7.36,7.36,0,0,1,234.16,111.31Zm-2.49,0a5.15,5.15,0,0,0-10.29,0,5.15,5.15,0,0,0,5.18,5.11A5.1,5.1,0,0,0,231.67,111.31Zm16.18,3.14-7.7-10.33h-2.38V118.5h2.42V108.19l7.66,10.31h2.38V104.12h-2.38Z"/></g></g></svg>